<svg width="530" height="530" viewBox="0 0 530 530" fill="none" xmlns="http://www.w3.org/2000/svg">
<path d="M97.6899 146.28C171.964 61.7662 299.482 47.7 356.33 74.8466C378.419 85.3135 398.851 98.967 416.973 115.37C419.347 117.49 421.654 119.67 423.894 121.911C430.889 128.8 437.449 136.118 443.536 143.821C450.832 153.036 457.412 162.795 463.22 173.013C471.542 187.554 478.134 203.019 482.862 219.091C485.99 229.637 488.043 240.473 488.989 251.432C490.611 272.007 489.201 292.772 486.434 313.177C486.18 315.127 485.904 317.078 485.607 319.028C485.533 319.569 485.459 320.088 485.374 320.65C482.332 340.97 478.028 361.471 468.414 379.194C457.92 398.56 421.308 452.291 381.6 453.68C361.004 454.411 342.815 440.96 324.148 431.42C294.468 416.283 260.877 413.315 228.123 412.435C195.369 411.556 162.212 412.499 130.296 404.379C98.3789 396.26 67.0877 377.614 50.7743 346.62C45.2305 336.084 41.0223 320.904 41.0117 308.757C41.0117 272.918 46.8629 241.574 57.0813 214.343C60.3261 205.659 64.1107 197.188 68.4127 188.977C74.7141 176.937 82.1388 165.52 90.5879 154.877L97.6899 146.28Z" fill="#E8ECF7"/>
<g opacity="0.7">
<path d="M97.6899 146.28C171.964 61.7662 299.482 47.7 356.33 74.8466C378.419 85.3135 398.851 98.967 416.973 115.37C419.347 117.49 421.654 119.67 423.894 121.911C430.889 128.8 437.449 136.118 443.536 143.821C450.832 153.036 457.412 162.795 463.22 173.013C471.542 187.554 478.134 203.019 482.862 219.091C485.99 229.637 488.043 240.473 488.989 251.432C490.611 272.007 489.201 292.772 486.434 313.177C486.18 315.127 485.904 317.078 485.607 319.028C485.533 319.569 485.459 320.088 485.374 320.65C482.332 340.97 478.028 361.471 468.414 379.194C457.92 398.56 421.308 452.291 381.6 453.68C361.004 454.411 342.815 440.96 324.148 431.42C294.468 416.283 260.877 413.315 228.123 412.435C195.369 411.556 162.212 412.499 130.296 404.379C98.3789 396.26 67.0877 377.614 50.7743 346.62C45.2305 336.084 41.0223 320.904 41.0117 308.757C41.0117 272.918 46.8629 241.574 57.0813 214.343C60.3261 205.659 64.1107 197.188 68.4127 188.977C74.7141 176.937 82.1388 165.52 90.5879 154.877L97.6899 146.28Z" fill="white"/>
</g>
<path d="M41.0117 452.45H496.865" stroke="#00000D" stroke-linecap="round" stroke-linejoin="round"/>
<path d="M391.829 298.676V298.793C391.829 298.984 391.871 299.185 391.956 299.397C392.43 301.72 392.784 304.065 393.016 306.425C393.217 308.449 393.376 310.76 393.419 313.336C393.519 319.289 393.111 325.239 392.2 331.123C391.966 332.67 391.691 334.303 391.362 335.935C390.843 338.628 390.207 341.447 389.422 344.362C389.073 345.719 388.67 347.108 388.246 348.507L387.748 350.213C387.557 350.902 387.366 351.591 387.186 352.333C385.967 357.043 384.994 361.812 384.271 366.622C383.37 372.611 382.808 378.558 382.501 384.186C382.087 391.691 382.108 398.624 382.289 404.326C382.283 404.422 382.283 404.517 382.289 404.613C382.479 410.411 382.84 414.958 383.084 417.545C383.221 419.06 383.317 419.919 383.327 419.972" stroke="#00000D" stroke-linecap="round" stroke-linejoin="round"/>
<path d="M391.86 298.825C390.273 297.414 388.361 296.42 386.295 295.931L391.86 298.825Z" fill="white"/>
<path d="M391.86 298.825C390.273 297.414 388.361 296.42 386.295 295.931" stroke="#00000D" stroke-linecap="round" stroke-linejoin="round"/>
<path d="M393.047 306.457L395.866 303.902" stroke="#00000D" stroke-linecap="round" stroke-linejoin="round"/>
<path d="M389.455 344.373C389.307 343.629 389.087 342.901 388.797 342.2C388.38 341.171 387.812 340.21 387.112 339.348C386.59 338.701 385.996 338.114 385.342 337.599" stroke="#00000D" stroke-linecap="round" stroke-linejoin="round"/>
<path d="M387.195 352.323C387.595 351.333 388.193 350.435 388.954 349.686C389.714 348.937 390.62 348.351 391.616 347.966" stroke="#00000D" stroke-linecap="round" stroke-linejoin="round"/>
<path d="M382.297 391.755C383.24 390.61 383.95 386.275 384.332 383.943C384.427 383.391 384.502 382.883 384.576 382.575" fill="white"/>
<path d="M382.297 391.755C383.24 390.61 383.95 386.275 384.332 383.943C384.427 383.391 384.502 382.883 384.576 382.575" stroke="#00000D" stroke-linecap="round" stroke-linejoin="round"/>
<path d="M375.037 399.62C375.351 399.588 375.667 399.588 375.981 399.62C377.369 399.755 378.694 400.265 379.815 401.096C380.935 401.927 381.808 403.048 382.341 404.337" fill="white"/>
<path d="M375.037 399.62C375.351 399.588 375.667 399.588 375.981 399.62C377.369 399.755 378.694 400.265 379.815 401.096C380.935 401.927 381.808 403.048 382.341 404.337" stroke="#00000D" stroke-linecap="round" stroke-linejoin="round"/>
<path d="M391.394 336.02C391.394 336.02 391.892 318.816 382.447 312.573" stroke="#00000D" stroke-linecap="round" stroke-linejoin="round"/>
<path d="M392.198 372.897C393.438 376.915 384.778 384.557 384.778 384.557C384.778 384.557 373.341 383.126 372.058 379.12C370.775 375.113 373.712 368.52 379.266 366.824C384.82 365.128 391 368.88 392.198 372.897Z" fill="#1380C7"/>
<path d="M401.834 324.212C400.774 328.452 392.548 331.494 392.548 331.494C392.548 331.494 386.899 324.89 387.959 320.629C389.019 316.368 393.587 311.682 397.424 312.668C401.262 313.654 402.936 319.95 401.834 324.212Z" fill="#1380C7"/>
<path d="M368.983 387.886C374.124 389.879 377.272 398.973 377.272 398.973C377.272 398.973 368.792 403.542 363.662 401.539C358.532 399.535 353.062 393.896 354.546 390.133C356.03 386.37 363.842 385.84 368.983 387.886Z" fill="#1380C7"/>
<path d="M380.253 337.854C381.294 338.729 382.487 339.404 383.773 339.847C384.418 340.056 385.108 340.083 385.768 339.926C386.428 339.769 387.032 339.433 387.514 338.956C388.574 337.695 388.32 335.776 387.631 334.197C386.253 331.176 381.186 326.035 377.296 327.508C371.678 329.66 377.752 336.02 380.253 337.854Z" fill="#1380C7"/>
<path d="M391.753 345.56C391.011 346.472 390.226 347.627 390.64 348.74C390.87 349.208 391.249 349.586 391.717 349.816C392.185 350.046 392.715 350.115 393.226 350.012C394.243 349.771 395.192 349.303 396.003 348.645C397.986 347.267 402.056 344.405 399.459 341.68C396.862 338.956 393.258 343.641 391.753 345.56Z" fill="#1380C7"/>
<path d="M375.165 307.114C374.737 307.139 374.328 307.297 373.995 307.568C373.662 307.838 373.422 308.205 373.31 308.619C373.14 309.605 373.956 310.463 374.741 311.068C376.712 312.594 382.638 316.686 383.952 312.732C385.203 309.001 377.772 306.828 375.165 307.114Z" fill="#1380C7"/>
<path d="M386.073 294.118C384.854 294.235 383.635 293.79 382.405 293.864C381.175 293.938 379.829 294.924 380.094 296.132C380.359 297.341 381.727 297.606 382.85 297.669C384.785 297.793 386.727 297.661 388.627 297.277C389.077 297.234 389.494 297.022 389.793 296.683C390.291 295.952 389.507 294.977 388.659 294.722C387.789 294.607 386.932 294.401 386.104 294.108L386.073 294.118Z" fill="#1380C7"/>
<path d="M398.008 302.524C399.227 302.524 400.414 302.036 401.644 302.026C402.873 302.015 404.294 302.916 404.092 304.146C403.891 305.375 402.577 305.725 401.453 305.863C399.532 306.117 397.586 306.117 395.665 305.863C395.211 305.853 394.777 305.666 394.457 305.344C393.916 304.655 394.637 303.626 395.453 303.308C396.317 303.147 397.16 302.887 397.966 302.535L398.008 302.524Z" fill="#1380C7"/>
<path d="M396.8 392.857C397.08 392.564 397.456 392.38 397.86 392.338C398.132 392.364 398.387 392.484 398.58 392.677C398.774 392.871 398.894 393.125 398.92 393.398C398.978 393.921 398.913 394.452 398.729 394.945C397.891 397.733 388.563 417.863 386.412 414.248C385.15 412.128 388.267 405.037 389.189 403.033C390.949 399.124 393.547 395.65 396.8 392.857Z" fill="#1380C7"/>
<path d="M392.253 299.98C392.253 299.98 391.691 295.093 392.868 294.68" stroke="#00000D" stroke-linecap="round" stroke-linejoin="round"/>
<path d="M391.213 294.881C391.814 293.156 392.851 291.615 394.223 290.408C395.697 289.348 398.06 289.263 399.131 290.737C400.329 292.38 399.131 294.871 397.297 295.751C395.463 296.63 393.301 296.365 391.287 296.079C391.287 295.782 391.287 295.486 391.287 295.189L391.213 294.881Z" fill="#1380C7"/>
<path d="M396.236 452.207C386.244 453.892 376.04 453.892 366.048 452.207L354.303 417.555H407.981L396.236 452.207Z" fill="white" stroke="#00000D" stroke-linecap="round" stroke-linejoin="round"/>
<path d="M191.381 201.856V201.972C191.424 202.163 191.466 202.365 191.509 202.577C191.989 204.898 192.343 207.244 192.569 209.604C192.77 211.629 192.918 213.94 192.971 216.516C193.08 222.453 192.683 228.39 191.784 234.26C191.551 235.808 191.275 237.44 190.947 239.072C190.427 241.765 189.781 244.584 189.007 247.499C188.647 248.856 188.254 250.245 187.83 251.644C187.661 252.216 187.491 252.778 187.332 253.351C187.173 253.923 186.94 254.729 186.76 255.471" stroke="#00000D" stroke-linecap="round" stroke-linejoin="round"/>
<path d="M191.402 202.004C190.641 201.338 189.809 200.759 188.921 200.276C187.942 199.76 186.902 199.369 185.826 199.11" fill="white"/>
<path d="M191.402 202.004C190.641 201.338 189.809 200.759 188.921 200.276C187.942 199.76 186.902 199.369 185.826 199.11" stroke="#00000D" stroke-linecap="round" stroke-linejoin="round"/>
<path d="M192.59 209.636L195.42 207.082" stroke="#00000D" stroke-linecap="round" stroke-linejoin="round"/>
<path d="M189.008 247.552C188.857 246.808 188.633 246.08 188.34 245.379C187.923 244.351 187.355 243.39 186.655 242.528C186.133 241.88 185.539 241.293 184.885 240.779" stroke="#00000D" stroke-linecap="round" stroke-linejoin="round"/>
<path d="M186.75 255.46C187.146 254.469 187.741 253.571 188.5 252.822C189.259 252.072 190.164 251.487 191.16 251.103" stroke="#00000D" stroke-linecap="round" stroke-linejoin="round"/>
<path d="M181.842 294.934C182.785 293.79 183.506 289.454 183.888 287.122C183.972 286.571 184.057 286.062 184.121 285.755" fill="white"/>
<path d="M181.842 294.934C182.785 293.79 183.506 289.454 183.888 287.122C183.972 286.571 184.057 286.062 184.121 285.755" stroke="#00000D" stroke-linecap="round" stroke-linejoin="round"/>
<path d="M174.582 302.757C174.899 302.725 175.219 302.725 175.536 302.757C176.923 302.895 178.247 303.407 179.367 304.238C180.487 305.068 181.361 306.187 181.896 307.474" fill="white"/>
<path d="M174.582 302.757C174.899 302.725 175.219 302.725 175.536 302.757C176.923 302.895 178.247 303.407 179.367 304.238C180.487 305.068 181.361 306.187 181.896 307.474" stroke="#00000D" stroke-linecap="round" stroke-linejoin="round"/>
<path d="M190.937 239.157C190.937 239.157 191.445 221.953 181.99 215.71" stroke="#00000D" stroke-linecap="round" stroke-linejoin="round"/>
<path d="M191.795 276.077C193.025 280.094 184.375 287.737 184.375 287.737C184.375 287.737 172.927 286.306 171.655 282.299C170.383 278.292 173.32 271.699 178.863 270.003C184.407 268.307 190.555 272.07 191.795 276.077Z" fill="#1380C7"/>
<path d="M201.399 227.391C200.339 231.631 192.114 234.673 192.114 234.673C192.114 234.673 186.4 228.07 187.503 223.808C188.605 219.547 193.121 214.862 196.958 215.848C200.795 216.834 202.459 223.13 201.399 227.391Z" fill="#1380C7"/>
<path d="M168.539 291.065C173.68 293.069 176.839 302.153 176.839 302.153C176.839 302.153 168.359 306.722 163.218 304.718C158.077 302.715 152.618 297.076 154.112 293.313C155.607 289.55 163.387 289.062 168.539 291.065Z" fill="#1380C7"/>
<path d="M179.808 241.033C180.845 241.908 182.034 242.584 183.316 243.026C183.962 243.235 184.652 243.263 185.312 243.106C185.972 242.948 186.576 242.613 187.058 242.136C188.118 240.874 187.864 238.956 187.175 237.376C185.797 234.355 180.741 229.214 176.84 230.688C171.232 232.818 177.296 239.178 179.808 241.033Z" fill="#1380C7"/>
<path d="M191.297 248.75C190.565 249.662 189.781 250.87 190.184 251.93C190.414 252.398 190.793 252.776 191.261 253.006C191.728 253.236 192.259 253.305 192.77 253.202C193.788 252.963 194.737 252.495 195.547 251.835C197.53 250.467 201.6 247.595 199.003 244.871C196.406 242.146 192.855 246.821 191.297 248.75Z" fill="#1380C7"/>
<path d="M174.708 210.293C174.28 210.32 173.872 210.479 173.539 210.749C173.207 211.019 172.967 211.386 172.853 211.799C172.683 212.784 173.499 213.643 174.294 214.247C176.266 215.774 182.181 219.865 183.506 215.911C184.746 212.18 177.326 210.007 174.708 210.293Z" fill="#1380C7"/>
<path d="M185.615 197.298C184.396 197.414 183.177 196.969 181.958 197.043C180.739 197.118 179.372 198.103 179.647 199.312C179.923 200.52 181.269 200.785 182.403 200.849C184.334 200.973 186.273 200.841 188.17 200.457C188.623 200.414 189.043 200.202 189.346 199.863C189.834 199.132 189.049 198.156 188.212 197.902C187.338 197.786 186.478 197.58 185.647 197.287L185.615 197.298Z" fill="#1380C7"/>
<path d="M197.551 205.704C198.78 205.704 199.968 205.216 201.187 205.205C202.406 205.195 203.837 206.096 203.646 207.325C203.455 208.555 202.119 208.905 200.996 209.043C199.075 209.297 197.129 209.297 195.208 209.043C194.753 209.032 194.32 208.846 194 208.523C193.459 207.834 194.18 206.806 195.007 206.488C195.87 206.324 196.713 206.064 197.519 205.714L197.551 205.704Z" fill="#1380C7"/>
<path d="M196.343 296.037C196.625 295.745 197 295.562 197.403 295.517C197.673 295.549 197.925 295.671 198.117 295.863C198.31 296.055 198.432 296.307 198.463 296.577C198.518 297.102 198.449 297.632 198.262 298.125C197.435 300.913 188.096 321.042 185.955 317.428C184.683 315.308 187.799 308.216 188.722 306.213C190.485 302.303 193.087 298.828 196.343 296.037Z" fill="#1380C7"/>
<path d="M191.795 203.181C191.795 203.181 191.233 198.294 192.42 197.881" stroke="#00000D" stroke-linecap="round" stroke-linejoin="round"/>
<path d="M190.799 198.061C191.392 196.331 192.43 194.789 193.809 193.588C195.283 192.528 197.636 192.443 198.706 193.916C199.904 195.559 198.706 198.05 196.873 198.93C195.039 199.81 192.887 199.545 190.873 199.259C190.873 198.962 190.873 198.665 190.873 198.368L190.799 198.061Z" fill="#1380C7"/>
<path d="M57.0801 319.028V214.29" stroke="#00000D" stroke-linecap="round" stroke-linejoin="round"/>
<path d="M384.091 319.028H371.148" stroke="#00000D" stroke-linecap="round" stroke-linejoin="round"/>
<path d="M485.585 319.028H459.223" stroke="#00000D" stroke-linecap="round" stroke-linejoin="round"/>
<path d="M369.961 159.912H416.675V115.413" stroke="#00000D" stroke-linecap="round" stroke-linejoin="round"/>
<path d="M97.6875 146.322H147.317V182.521H201.716" stroke="#00000D" stroke-linecap="round" stroke-linejoin="round"/>
<path d="M68.4121 268.911V188.924" stroke="#00000D" stroke-linecap="round" stroke-linejoin="round"/>
<path d="M90.5879 154.209V216.897" stroke="#00000D" stroke-linecap="round" stroke-linejoin="round"/>
<path d="M112.75 154.209V209.626" stroke="#00000D" stroke-linecap="round" stroke-linejoin="round"/>
<path d="M134.916 154.209V251.146" stroke="#00000D" stroke-linecap="round" stroke-linejoin="round"/>
<path d="M241.098 140.461V76.7228H331.335V140.461" stroke="#00000D" stroke-linecap="round" stroke-linejoin="round"/>
<path d="M247.711 108.385V84.2912H264.395" stroke="#00000D" stroke-linecap="round" stroke-linejoin="round"/>
<path d="M268.062 108.385V84.2912H284.747" stroke="#00000D" stroke-linecap="round" stroke-linejoin="round"/>
<path d="M288.414 108.385V84.2912H305.098" stroke="#00000D" stroke-linecap="round" stroke-linejoin="round"/>
<path d="M308.766 108.385V84.2912H325.45" stroke="#00000D" stroke-linecap="round" stroke-linejoin="round"/>
<path d="M247.711 140.461V116.367H264.395" stroke="#00000D" stroke-linecap="round" stroke-linejoin="round"/>
<path d="M268.062 140.461V116.367H284.747" stroke="#00000D" stroke-linecap="round" stroke-linejoin="round"/>
<path d="M288.414 140.461V116.367H305.098" stroke="#00000D" stroke-linecap="round" stroke-linejoin="round"/>
<path d="M308.766 140.461V116.367H325.45" stroke="#00000D" stroke-linecap="round" stroke-linejoin="round"/>
<path d="M423.904 120.925V200.796" stroke="#00000D" stroke-linecap="round" stroke-linejoin="round"/>
<path d="M456.67 313.177H459.225" stroke="#00000D" stroke-linecap="round" stroke-linejoin="round"/>
<path d="M443.545 143.863V233.285" stroke="#00000D" stroke-linecap="round" stroke-linejoin="round"/>
<path d="M463.197 290.345V313.177H478.875" stroke="#00000D" stroke-linecap="round" stroke-linejoin="round"/>
<path d="M463.197 173.013V233.741" stroke="#00000D" stroke-linecap="round" stroke-linejoin="round"/>
<path d="M482.84 219.091V313.177H486.412" stroke="#00000D" stroke-linecap="round" stroke-linejoin="round"/>
<path d="M243.472 320.947H41.0117V452.45H243.472V320.947Z" fill="white" stroke="#00000D" stroke-linecap="round" stroke-linejoin="round"/>
<path d="M41.0117 320.947L142.242 386.699L243.472 320.947H41.0117Z" fill="white" stroke="#00000D" stroke-linecap="round" stroke-linejoin="round"/>
<path d="M111.809 366.93L41.0117 452.45" stroke="#00000D" stroke-linecap="round" stroke-linejoin="round"/>
<path d="M173.225 366.93L244.022 452.45" stroke="#00000D" stroke-linecap="round" stroke-linejoin="round"/>
<path d="M351.815 153.149H304.751C303.395 153.15 302.065 153.515 300.898 154.205C299.731 154.894 298.77 155.884 298.115 157.071C296.958 159.158 295.264 160.898 293.208 162.109C291.152 163.32 288.809 163.959 286.423 163.959C284.037 163.959 281.694 163.32 279.638 162.109C277.582 160.898 275.888 159.158 274.731 157.071C274.082 155.869 273.119 154.865 271.945 154.165C270.772 153.465 269.43 153.096 268.064 153.096H221.053C219.763 153.079 218.481 153.317 217.283 153.795C216.084 154.273 214.992 154.983 214.067 155.884C213.143 156.784 212.405 157.858 211.896 159.044C211.387 160.23 211.116 161.504 211.1 162.795V428.24C211.136 430.845 212.204 433.33 214.07 435.148C215.936 436.966 218.448 437.97 221.053 437.939H351.815C354.421 437.97 356.933 436.967 358.801 435.149C360.669 433.331 361.74 430.846 361.779 428.24V162.848C361.742 160.241 360.672 157.755 358.804 155.936C356.936 154.117 354.422 153.115 351.815 153.149Z" fill="#000080"/>
<path d="M366.368 159.912C366.374 158.124 366.027 156.352 365.346 154.698C364.666 153.045 363.666 151.542 362.403 150.275C361.141 149.009 359.641 148.004 357.989 147.319C356.338 146.633 354.567 146.28 352.779 146.28H220.099C218.315 146.279 216.548 146.629 214.899 147.311C213.251 147.992 211.753 148.992 210.491 150.253C209.229 151.514 208.227 153.012 207.544 154.66C206.861 156.308 206.51 158.075 206.51 159.859V438.84C206.51 442.441 207.94 445.895 210.487 448.442C213.033 450.988 216.487 452.419 220.088 452.419H352.779C356.381 452.419 359.836 450.988 362.384 448.442C364.933 445.896 366.366 442.442 366.368 438.84V159.912ZM361.779 428.24C361.739 430.846 360.669 433.331 358.801 435.149C356.933 436.967 354.421 437.97 351.815 437.939H221.053C218.448 437.97 215.936 436.966 214.07 435.148C212.204 433.33 211.136 430.845 211.1 428.24V162.848C211.116 161.557 211.387 160.283 211.896 159.097C212.405 157.911 213.143 156.837 214.067 155.937C214.992 155.036 216.084 154.326 217.283 153.848C218.481 153.37 219.763 153.132 221.053 153.149H268.085C269.45 153.148 270.79 153.518 271.962 154.218C273.134 154.918 274.095 155.922 274.742 157.124C275.898 159.211 277.593 160.951 279.649 162.162C281.705 163.373 284.047 164.012 286.434 164.012C288.82 164.012 291.163 163.373 293.219 162.162C295.275 160.951 296.969 159.211 298.126 157.124C298.779 155.936 299.739 154.945 300.907 154.255C302.074 153.565 303.405 153.201 304.761 153.202H351.825C353.116 153.185 354.397 153.423 355.595 153.901C356.794 154.379 357.887 155.089 358.811 155.99C359.735 156.89 360.473 157.964 360.982 159.15C361.491 160.336 361.762 161.61 361.779 162.901V428.24Z" fill="#00000D"/>
<path opacity="0.2" d="M321.285 146.322L233.146 452.44L268.148 452.408L353.022 146.322H321.285Z" fill="white"/>
<path opacity="0.2" d="M308.144 146.322L214.959 452.45L220.058 452.419L311.493 146.322H308.144Z" fill="white"/>
<path d="M310.209 373.894C310.274 376.928 309.731 379.945 308.613 382.766C307.494 385.587 305.822 388.156 303.695 390.322C301.569 392.487 299.03 394.205 296.229 395.374C293.429 396.543 290.422 397.14 287.387 397.129C281.195 397.106 275.256 394.663 270.84 390.322C266.424 385.98 263.879 380.085 263.749 373.894C263.686 370.861 264.229 367.845 265.349 365.025C266.468 362.205 268.14 359.637 270.267 357.473C272.393 355.309 274.931 353.592 277.731 352.424C280.531 351.255 283.537 350.659 286.571 350.669C292.763 350.69 298.701 353.131 303.117 357.47C307.534 361.809 310.079 367.704 310.209 373.894Z" fill="white" stroke="#00000D" stroke-linecap="round" stroke-linejoin="round"/>
<path d="M279.364 391.236C277.207 390.438 275.229 389.22 273.545 387.653C271.847 386.022 270.533 384.034 269.697 381.833C268.744 379.366 268.273 376.74 268.308 374.095C268.295 371.841 268.694 369.603 269.485 367.492C270.204 365.541 271.283 363.744 272.665 362.192C275.39 359.211 278.909 357.071 282.809 356.022C284.724 355.506 286.699 355.246 288.682 355.249C290.328 355.241 291.97 355.437 293.568 355.832C295.111 356.21 296.587 356.821 297.946 357.644C299.292 358.452 300.498 359.472 301.518 360.665C302.582 361.951 303.394 363.425 303.914 365.011C304.508 366.82 304.802 368.714 304.783 370.619C304.761 374.298 303.435 377.851 301.041 380.646C300.012 381.813 298.794 382.798 297.437 383.561C296.268 384.232 294.948 384.597 293.6 384.621C292.669 384.633 291.761 384.339 291.014 383.784C290.639 383.506 290.334 383.145 290.122 382.73C289.91 382.314 289.798 381.855 289.795 381.388C289.099 382.445 288.145 383.307 287.022 383.892C285.9 384.476 284.647 384.764 283.382 384.727C282.387 384.772 281.394 384.593 280.477 384.204C279.56 383.815 278.742 383.226 278.082 382.48C276.758 380.942 276.059 378.964 276.121 376.936C276.129 375.267 276.42 373.611 276.979 372.039C277.536 370.454 278.326 368.961 279.322 367.608C280.314 366.279 281.579 365.177 283.032 364.375C284.484 363.556 286.124 363.128 287.791 363.135C288.95 363.123 290.094 363.4 291.12 363.941C292.115 364.471 292.922 365.297 293.431 366.304L293.642 365.594C293.811 365.097 294.171 364.687 294.642 364.454C295.113 364.222 295.657 364.186 296.155 364.354C296.347 364.419 296.529 364.512 296.695 364.63C296.853 364.756 296.979 364.917 297.062 365.102C297.145 365.286 297.183 365.488 297.172 365.69C297.173 365.888 297.14 366.085 297.077 366.273L293.642 377.699C293.34 378.57 293.144 379.474 293.059 380.392C293.028 380.563 293.039 380.739 293.092 380.905C293.144 381.071 293.237 381.222 293.362 381.343C293.487 381.465 293.639 381.554 293.807 381.602C293.974 381.651 294.151 381.657 294.321 381.621C295.536 381.544 296.675 381.001 297.501 380.106C298.646 378.973 299.526 377.601 300.077 376.088C300.734 374.435 301.073 372.673 301.073 370.894C301.087 369.328 300.858 367.769 300.395 366.273C300.005 364.983 299.388 363.773 298.572 362.7C297.799 361.724 296.863 360.888 295.805 360.231C294.75 359.565 293.599 359.068 292.392 358.757C291.153 358.432 289.878 358.268 288.597 358.27C286.973 358.272 285.356 358.5 283.795 358.948C282.187 359.403 280.655 360.093 279.248 360.994C277.829 361.889 276.544 362.981 275.432 364.237C274.286 365.561 273.395 367.084 272.803 368.732C272.137 370.526 271.803 372.426 271.817 374.339C271.782 376.605 272.193 378.856 273.026 380.964C273.744 382.789 274.876 384.422 276.333 385.734C277.74 386.956 279.366 387.902 281.124 388.522C282.979 389.178 284.933 389.508 286.901 389.497C289.004 389.497 291.094 389.179 293.102 388.554C293.302 388.482 293.514 388.446 293.727 388.448C293.926 388.445 294.123 388.484 294.306 388.562C294.489 388.641 294.653 388.757 294.787 388.904C294.923 389.044 295.029 389.21 295.1 389.392C295.171 389.574 295.205 389.768 295.201 389.964C295.226 390.272 295.139 390.579 294.956 390.828C294.773 391.078 294.506 391.252 294.204 391.32C291.703 392.085 289.103 392.485 286.487 392.508C284.057 392.504 281.646 392.074 279.364 391.236ZM288.12 380.243C289.168 379.491 289.945 378.42 290.335 377.191L292.551 369.4L292.402 369.082C292.264 368.826 292.097 368.588 291.904 368.371C291.638 368.065 291.348 367.781 291.035 367.523C290.638 367.206 290.19 366.959 289.71 366.792C288.455 366.354 287.082 366.403 285.862 366.93C285.194 367.213 284.58 367.611 284.049 368.106C283.498 368.621 283.007 369.197 282.587 369.824C282.166 370.476 281.811 371.168 281.527 371.891C281.229 372.613 280.998 373.362 280.838 374.127C280.678 374.855 280.596 375.597 280.594 376.343C280.585 376.821 280.613 377.3 280.679 377.774C280.728 378.195 280.82 378.611 280.954 379.014C281.071 379.388 281.238 379.745 281.452 380.074C281.644 380.37 281.889 380.628 282.173 380.837C282.477 381.057 282.818 381.219 283.18 381.314C283.603 381.438 284.043 381.495 284.484 381.484C285.81 381.5 287.104 381.075 288.162 380.275L288.12 380.243Z" fill="#1380C7" stroke="#00000D" stroke-linecap="round" stroke-linejoin="round"/>
<path d="M309.69 294.256C309.754 297.289 309.21 300.305 308.09 303.125C306.971 305.945 305.299 308.513 303.172 310.677C301.046 312.841 298.508 314.558 295.708 315.726C292.908 316.895 289.902 317.491 286.868 317.481C280.676 317.46 274.738 315.019 270.322 310.68C265.905 306.34 263.36 300.446 263.23 294.256C263.164 291.221 263.705 288.204 264.823 285.382C265.942 282.56 267.613 279.991 269.74 277.825C271.867 275.66 274.407 273.942 277.208 272.773C280.009 271.605 283.016 271.009 286.052 271.021C292.244 271.044 298.183 273.487 302.599 277.828C307.015 282.17 309.56 288.065 309.69 294.256Z" fill="white" stroke="#00000D" stroke-linecap="round" stroke-linejoin="round"/>
<path d="M301.04 292.136C293.758 287.366 279.48 287.366 272.537 292.136C271.267 292.374 270.125 293.061 269.32 294.071C268.514 295.081 268.098 296.347 268.149 297.637C268.255 300.722 281.07 300.722 280.964 297.637C280.902 296.348 280.409 295.116 279.565 294.139C284.371 293.101 289.344 293.101 294.15 294.139C293.368 295.134 292.963 296.373 293.006 297.637C293.112 300.722 305.927 300.722 305.81 297.637C305.75 296.318 305.247 295.056 304.381 294.058C303.515 293.06 302.338 292.383 301.04 292.136Z" fill="#1380C7" stroke="#00000D" stroke-linecap="round" stroke-linejoin="round"/>
<path d="M309.69 216.897C309.817 222.611 306.701 227.72 301.698 231.122V244.998L291.744 235.034C290.135 235.322 288.503 235.463 286.868 235.458C274.042 235.458 263.453 227.147 263.23 216.897C263.008 206.647 273.215 198.347 286.052 198.347C298.889 198.347 309.52 206.7 309.69 216.897Z" fill="white" stroke="#00000D" stroke-linecap="round" stroke-linejoin="round"/>
<path d="M276.566 216.897C276.568 217.493 276.393 218.076 276.064 218.573C275.734 219.069 275.265 219.457 274.715 219.686C274.165 219.916 273.559 219.977 272.975 219.862C272.39 219.747 271.852 219.461 271.43 219.04C271.008 218.62 270.721 218.083 270.604 217.499C270.487 216.915 270.546 216.309 270.773 215.758C271.001 215.208 271.386 214.737 271.882 214.406C272.377 214.074 272.959 213.897 273.555 213.897C274.352 213.897 275.116 214.213 275.68 214.775C276.244 215.338 276.563 216.101 276.566 216.897Z" fill="#1380C7" stroke="#00000D" stroke-linecap="round" stroke-linejoin="round"/>
<path d="M289.445 216.897C289.447 217.493 289.272 218.076 288.942 218.573C288.613 219.069 288.144 219.457 287.594 219.686C287.044 219.915 286.438 219.977 285.853 219.862C285.269 219.747 284.731 219.461 284.309 219.04C283.887 218.62 283.599 218.083 283.482 217.499C283.365 216.915 283.424 216.309 283.652 215.758C283.879 215.208 284.265 214.737 284.761 214.405C285.256 214.074 285.838 213.897 286.434 213.897C287.231 213.897 287.995 214.213 288.559 214.775C289.123 215.338 289.442 216.101 289.445 216.897Z" fill="#1380C7" stroke="#00000D" stroke-linecap="round" stroke-linejoin="round"/>
<path d="M302.324 216.897C302.326 217.493 302.151 218.076 301.821 218.573C301.492 219.069 301.022 219.457 300.473 219.686C299.923 219.915 299.317 219.977 298.732 219.862C298.148 219.747 297.61 219.461 297.188 219.04C296.766 218.62 296.478 218.083 296.361 217.499C296.244 216.915 296.303 216.309 296.531 215.758C296.758 215.208 297.144 214.737 297.64 214.405C298.135 214.074 298.717 213.897 299.313 213.897C300.11 213.897 300.874 214.213 301.438 214.775C302.002 215.338 302.321 216.101 302.324 216.897Z" fill="#1380C7" stroke="#00000D" stroke-linecap="round" stroke-linejoin="round"/>
<path d="M156.666 259.202C156.29 259.902 155.748 260.499 155.087 260.94C150.197 264.841 145.194 268.583 140.077 272.166C138.201 273.48 136.251 274.837 134.438 276.31C123.541 283.603 130.198 285.384 123.541 300.817C121.973 304.506 122.259 322.579 122.259 322.579H121.718C120.442 321.32 119.086 320.144 117.658 319.06C117.461 318.927 117.256 318.807 117.044 318.7C116.844 318.597 116.629 318.529 116.408 318.498C115.348 318.435 111.309 318.922 107.228 318.657L106.168 318.572C105.574 318.509 104.991 318.435 104.408 318.329C103.825 318.223 103.264 318.106 102.723 317.958C98.8501 316.716 95.0525 315.251 91.3492 313.569L89.5048 312.774L88.5932 312.382L87.7664 312.022L87.1728 311.767L86.6004 311.523C85.6358 311.121 84.7348 310.75 83.908 310.463C83.529 310.328 83.1434 310.211 82.7526 310.114C82.7526 310.983 82.6148 311.873 82.4982 312.742C81.9894 316.887 80.8552 320.714 78.8306 321.222C78.7889 321.233 78.7451 321.233 78.7034 321.222C78.5251 321.256 78.3442 321.274 78.1628 321.275H78.0038C77.5553 321.266 77.1113 321.184 76.6894 321.032C74.852 320.247 73.3504 318.84 72.4494 317.057C72.0468 316.305 71.8219 315.471 71.7922 314.619C71.7922 311.534 70.9336 293.334 70.9336 288.034C70.9336 282.734 71.9936 273.459 74.633 270.014C75.6645 268.553 76.9672 267.304 78.4702 266.336C80.4041 264.723 82.6223 263.487 85.0104 262.689C87.83 261.767 94.137 259.414 98.536 257.75L91.8898 260.315C93.5752 263.198 97.1898 267.735 103.709 268.318C109.836 268.837 113.63 263.293 115.57 259.244C115.74 259.308 126.403 257.283 128.873 257.4C136.919 257.75 143.48 253.393 146.448 251.665C147.343 251.13 148.348 250.805 149.387 250.713C150.425 250.62 151.472 250.764 152.447 251.133C153.423 251.502 154.302 252.087 155.02 252.843C155.738 253.6 156.275 254.509 156.592 255.502V255.598C157.056 256.75 157.082 258.032 156.666 259.202Z" fill="#1380C7" stroke="#00000D" stroke-linecap="round" stroke-linejoin="round"/>
<path d="M115.452 259.308L114.965 259.138L115.452 259.308Z" fill="white" stroke="#00000D" stroke-linecap="round" stroke-linejoin="round"/>
<path d="M124.495 327.243C124.5 327.285 124.5 327.328 124.495 327.37C124.452 327.473 124.386 327.564 124.303 327.638C124.22 327.712 124.121 327.766 124.015 327.796C123.908 327.827 123.795 327.833 123.686 327.814C123.576 327.796 123.472 327.753 123.382 327.688C122.894 327.413 122.142 325.643 122.142 325.643L121.304 324.773L120.753 324.19C120.838 324.402 121.506 326.024 121.156 326.777C121.138 326.828 121.109 326.876 121.071 326.915C120.837 327.228 120.533 327.482 120.183 327.656C119.834 327.831 119.448 327.922 119.057 327.922C118.601 327.922 117.266 328.081 116.1 328.155H115.972C115.619 328.174 115.265 328.174 114.912 328.155C113.971 328.034 113.063 327.728 112.241 327.254C110.377 326.98 108.539 326.544 106.75 325.95L106.432 325.78L106.146 325.611C105.958 325.497 105.784 325.362 105.627 325.208C104.981 324.67 104.432 324.024 104.005 323.3C104.005 323.3 99.7014 323.12 93.9244 322.675C91.8044 322.516 89.5148 322.314 87.1404 322.081C83.494 321.71 80.4836 321.731 78.1198 321.403H77.9502C77.4838 321.339 77.0492 321.254 76.6358 321.159C75.627 320.962 74.6941 320.484 73.9442 319.781C73.1943 319.078 72.6576 318.178 72.3958 317.184C72.257 316.713 72.1438 316.236 72.0566 315.753L73.901 312.573C74.8624 311.802 75.9344 311.18 77.081 310.728C78.8601 309.984 80.8244 309.803 82.7096 310.209C83.1004 310.306 83.486 310.423 83.865 310.559C84.6918 310.877 85.5928 311.248 86.5574 311.619L87.1404 311.863L87.734 312.117L88.5608 312.477C93.2778 314.428 98.9064 316.94 102.669 318C103.8 318.296 104.952 318.502 106.114 318.615L107.174 318.7C111.255 318.965 115.283 318.477 116.354 318.541C117.425 318.604 120.043 321.095 121.718 322.632C122.173 323.056 122.576 323.406 122.852 323.618L122.979 323.724L123.074 323.809C123.682 324.432 124.107 325.209 124.304 326.056C124.387 326.34 124.444 326.631 124.474 326.925C124.493 327.03 124.5 327.137 124.495 327.243Z" fill="white" stroke="#00000D" stroke-linecap="round" stroke-linejoin="round"/>
<path d="M124.495 327.243C124.5 327.285 124.5 327.328 124.495 327.37C124.451 327.472 124.385 327.562 124.301 327.635C124.218 327.708 124.119 327.761 124.012 327.79C123.906 327.82 123.794 327.825 123.685 327.805C123.576 327.786 123.472 327.742 123.382 327.678C122.858 327.07 122.439 326.378 122.142 325.632L121.305 324.773L120.754 324.201C120.828 324.371 121.517 326.024 121.167 326.787C121.149 326.839 121.12 326.886 121.082 326.925C120.965 327.082 120.829 327.224 120.679 327.349C120.222 327.716 119.654 327.918 119.068 327.922C118.602 327.922 117.277 328.07 116.121 328.155H115.973C115.62 328.174 115.266 328.174 114.913 328.155C113.978 328.03 113.075 327.728 112.252 327.264C110.388 326.985 108.551 326.545 106.762 325.95L106.454 325.802L106.168 325.632C105.985 325.511 105.811 325.377 105.649 325.229C104.993 324.686 104.437 324.034 104.006 323.3C104.006 323.3 99.8291 323.12 94.1687 322.685C92.0487 322.526 89.6001 322.314 87.1409 322.07C83.7913 321.742 81.0247 321.646 78.7881 321.297L78.0991 321.169L77.3041 320.989C77.1209 319.69 77.2555 318.366 77.6963 317.131C78.1072 316.088 78.7445 315.15 79.562 314.384C80.3796 313.618 81.3571 313.043 82.4239 312.7C83.748 312.213 85.1046 311.82 86.4837 311.523L87.0561 311.767L87.6497 312.022L88.4765 312.382C93.2783 314.449 98.8433 316.951 102.617 317.979C103.746 318.276 104.899 318.478 106.062 318.583L107.122 318.668C111.203 318.943 115.231 318.456 116.302 318.519C117.372 318.583 119.98 321.063 121.602 322.6C121.969 322.952 122.355 323.285 122.757 323.597L122.884 323.692L122.98 323.777C123.598 324.391 124.025 325.172 124.209 326.024C124.293 326.308 124.349 326.599 124.379 326.893C124.433 327.004 124.472 327.122 124.495 327.243Z" fill="white" stroke="#00000D" stroke-linecap="round" stroke-linejoin="round"/>
<path d="M111.807 324.424C111.807 324.424 114.213 325.674 115.167 326.109C116.121 326.544 116.036 328.293 116.036 328.293" fill="white"/>
<path d="M111.807 324.424C111.807 324.424 114.213 325.674 115.167 326.109C116.121 326.544 116.036 328.293 116.036 328.293" stroke="#00000D" stroke-linecap="round" stroke-linejoin="round"/>
<path d="M114.385 322.728C115.899 323.808 117.356 324.965 118.752 326.194C118.956 326.433 119.089 326.725 119.136 327.036C119.182 327.347 119.141 327.665 119.017 327.953" fill="white"/>
<path d="M114.385 322.728C115.899 323.808 117.356 324.965 118.752 326.194C118.956 326.433 119.089 326.725 119.136 327.036C119.182 327.347 119.141 327.665 119.017 327.953" stroke="#00000D" stroke-linecap="round" stroke-linejoin="round"/>
<path d="M120.723 324.18C119.469 322.836 118.142 321.562 116.748 320.364L120.723 324.18Z" fill="white"/>
<path d="M120.723 324.18C119.469 322.836 118.142 321.562 116.748 320.364" stroke="#00000D" stroke-linecap="round" stroke-linejoin="round"/>
<path d="M115.443 259.329C113.525 263.368 109.719 268.869 103.592 268.392C97.1052 267.841 93.4588 263.272 91.7734 260.378C94.1054 259.488 96.4692 258.576 98.409 257.813C98.409 255.842 98.3454 253.478 98.1334 251.135C98.1334 250.626 98.0274 250.075 97.9744 249.598C97.9214 249.121 97.8578 248.782 97.7942 248.39H110.122C110.122 248.39 110.048 248.877 109.952 249.694C109.878 250.425 109.783 251.4 109.709 252.503C109.613 253.965 109.55 255.683 109.592 257.304C110.186 257.506 110.79 257.728 111.394 257.962L112.56 258.364C113.026 258.534 113.482 258.682 113.97 258.841L115.03 259.159C115.171 259.207 115.309 259.264 115.443 259.329Z" fill="white" stroke="#00000D" stroke-linecap="round" stroke-linejoin="round"/>
<path d="M97.9746 249.556C97.9746 249.556 100.275 255.534 103.614 256.552C106.953 257.569 109.974 249.694 109.974 249.694C109.974 249.694 105.267 254.718 103.518 253.934C101.769 253.149 97.9958 249.598 97.9958 249.598" fill="#00000D"/>
<path d="M95.9927 216.537C92.8776 219.341 90.4076 222.788 88.7529 226.639C87.2371 229.819 85.9545 233.476 87.1205 236.804C87.8183 238.457 88.8054 239.971 90.0355 241.277C92.3251 244.023 95.5369 251.686 97.8265 254.432C97.9749 249.545 93.8833 241.648 94.3179 237.546C94.8443 234.377 95.8863 231.315 97.4025 228.483C98.9445 224.769 100.961 221.27 103.402 218.074C104.791 216.399 109.253 213.42 104.748 213.06C101.759 212.816 98.2505 214.682 95.9927 216.537Z" fill="#00000D" stroke="#00000D" stroke-linecap="round" stroke-linejoin="round"/>
<path d="M93.1078 233.2C93.1078 233.2 91.5284 230.137 89.8642 233.041C88.6664 235.161 90.3942 238.5 91.1362 239.74C91.3824 240.093 91.7159 240.376 92.1042 240.562C92.4925 240.748 92.9222 240.83 93.3516 240.8L93.1078 233.2Z" fill="white" stroke="#00000D" stroke-linecap="round" stroke-linejoin="round"/>
<path d="M113.863 244.266C112.85 246.268 111.53 248.1 109.951 249.694L108.997 250.679C107.026 252.63 104.895 254.177 103.496 253.859C102.277 253.616 100.687 252.365 99.1289 250.764C98.7367 250.372 98.3551 249.948 97.9735 249.524C96.2769 247.668 94.8203 245.606 93.6381 243.387C93.3096 242.554 93.0991 241.68 93.0127 240.79C92.7452 238.134 92.6531 235.465 92.7371 232.797C92.7371 231.854 92.7371 231.101 92.7371 230.677C92.7371 228.833 99.6483 222.42 99.6483 222.42C99.8345 222.352 100.035 222.33 100.231 222.356C101.42 222.573 102.566 222.981 103.623 223.565C107.81 225.6 113.651 229.638 114.075 231.175C114.721 233.412 114.478 242.274 113.863 244.266Z" fill="white" stroke="#00000D" stroke-linecap="round" stroke-linejoin="round"/>
<path d="M100.137 235.765C100.137 236.507 99.8617 237.111 99.5543 237.111C99.2469 237.111 98.9395 236.528 98.9395 235.765C98.9395 235.002 99.2151 234.398 99.5543 234.398C99.8935 234.398 100.137 235.023 100.137 235.765Z" fill="#00000D"/>
<path d="M108.033 234.408C108.372 234.408 108.648 235.013 108.648 235.765C108.648 236.518 108.372 237.111 108.033 237.111C107.694 237.111 107.418 236.507 107.418 235.765C107.418 235.023 107.694 234.408 108.033 234.408Z" fill="#00000D"/>
<path d="M96.1934 232.426C96.1934 232.426 97.2534 230.306 101.006 230.953" stroke="#00000D" stroke-linecap="round" stroke-linejoin="round"/>
<path d="M111.521 232.426C111.521 232.426 110.461 230.306 106.709 230.953" stroke="#00000D" stroke-linecap="round" stroke-linejoin="round"/>
<path d="M104.578 240.949C104.959 240.925 105.323 240.779 105.615 240.533C105.907 240.287 106.112 239.953 106.2 239.581C106.2 239.581 104.144 236.401 104.769 233.285" stroke="#00000D" stroke-linecap="round" stroke-linejoin="round"/>
<path d="M91.7732 225.78C90.9192 226.939 90.2736 228.237 89.8652 229.617" stroke="white" stroke-linecap="round" stroke-linejoin="round"/>
<path d="M100.634 217.3C100.634 217.3 99.4577 219.25 94.2743 223.225C93.9403 223.467 93.6216 223.729 93.3203 224.01" stroke="white" stroke-linecap="round" stroke-linejoin="round"/>
<path d="M84.0126 279.448C83.3059 289.525 82.5992 299.609 81.8926 309.7V308.926" fill="#00000D"/>
<path d="M84.0126 279.448C83.3059 289.525 82.5992 299.609 81.8926 309.7V308.926" stroke="#00000D" stroke-linecap="round" stroke-linejoin="round"/>
<path d="M150.974 246.174C151.932 245.8 152.968 245.666 153.99 245.784C155.011 245.903 155.989 246.27 156.836 246.853C158.527 248.05 159.757 249.789 160.323 251.782C160.999 253.766 160.931 255.928 160.133 257.866C159.719 258.822 159.054 259.647 158.209 260.253C157.363 260.86 156.368 261.226 155.331 261.311C153.785 261.292 152.291 260.75 151.091 259.774C147.126 256.806 145.144 248.687 150.974 246.174Z" fill="white" stroke="#00000D" stroke-linecap="round" stroke-linejoin="round"/>
<path d="M159.75 212.329C159.75 212.456 159.75 213.293 159.824 213.442C160.195 215.074 160.979 219.155 158.997 219.982C159.75 222.664 161.594 240.185 161.35 249.121C161.287 251.792 160.82 254.962 158.425 256.107C154.386 258.025 150.549 253.351 151.005 249.694C151.715 244.701 151.471 239.613 152.065 234.567C152.711 229.331 153.898 223.967 152.595 218.848C152.277 218.498 150.241 214.459 149.574 213.346C149.274 212.871 149.039 212.357 148.874 211.82C148.613 209.991 148.486 208.145 148.492 206.297C149.097 205.152 149.881 206.212 150.294 206.965C150.632 207.883 150.748 208.867 150.634 209.838C150.594 210.075 150.628 210.319 150.729 210.537C150.818 210.662 150.938 210.761 151.078 210.824C151.218 210.888 151.372 210.913 151.524 210.898C152.828 210.707 152.775 209.615 152.754 208.778C152.754 205.969 152.754 203.16 152.754 200.372C152.754 199.905 152.902 198.644 153.347 198.602C153.792 198.559 154.46 198.92 154.524 200.414C154.598 202.1 154.598 207.294 154.598 207.294C154.64 207.336 154.692 207.368 154.75 207.384C154.807 207.401 154.868 207.403 154.927 207.389C155.033 207.389 155.075 207.198 155.117 207.092C155.743 204.485 156.379 201.877 157.004 199.269C157.078 198.962 157.534 198.326 157.863 198.326C158.647 198.326 158.668 199.238 158.711 199.503C158.986 200.902 157.025 206.668 156.697 207.983C156.697 208.216 156.697 208.566 156.941 208.502L160.015 202.301C160.157 201.939 160.381 201.614 160.67 201.353C160.959 201.092 161.304 200.901 161.679 200.796C161.731 200.78 161.786 200.78 161.838 200.796C161.893 200.828 161.937 200.876 161.965 200.934C162.262 201.464 161.965 202.195 161.795 202.778C161.626 203.361 159.326 207.643 158.509 209.371C158.393 209.615 158.202 210.166 158.435 210.431C158.668 210.696 159.092 210.187 159.262 209.838C159.781 208.778 160.269 207.781 160.746 206.742C160.894 206.435 161.117 206 161.467 206.075C163.534 206.52 160.598 210.855 159.75 212.329Z" fill="white" stroke="#00000D" stroke-linecap="round" stroke-linejoin="round"/>
<path d="M154.049 211.417C155.116 212.262 156.043 213.271 156.794 214.406C157.165 214.977 157.413 215.618 157.522 216.29C157.632 216.961 157.6 217.648 157.43 218.307C157.379 218.479 157.311 218.646 157.229 218.805" fill="white"/>
<path d="M154.049 211.417C155.116 212.262 156.043 213.271 156.794 214.406C157.165 214.977 157.413 215.618 157.522 216.29C157.632 216.961 157.6 217.648 157.43 218.307C157.379 218.479 157.311 218.646 157.229 218.805" stroke="#00000D" stroke-linecap="round" stroke-linejoin="round"/>
<path d="M124.188 277.635C125.309 279.897 126.064 282.323 126.424 284.822C126.731 287.324 126.827 289.285 125.12 296.312" stroke="#00000D" stroke-linecap="round" stroke-linejoin="round"/>
<path d="M100.263 220.83C100.118 221.263 100.082 221.725 100.157 222.176C100.359 222.743 100.728 223.235 101.217 223.586C104.605 226.555 108.395 229.031 112.475 230.942C112.986 231.075 113.43 231.395 113.718 231.838C114.006 232.281 114.119 232.816 114.033 233.338V241.532C114.085 242.377 114.003 243.225 113.789 244.044C113.195 245.952 111.881 247.489 110.927 249.248C109.957 250.917 109.466 252.82 109.507 254.75C109.242 252.725 116.322 248.803 118.241 240.832C118.506 239.708 124.018 233.02 120.711 225.165C117.531 217.629 112.528 214.385 110.842 213.993C109.698 213.658 108.491 213.601 107.321 213.826C106.15 214.051 105.05 214.551 104.111 215.286C102.259 216.665 100.908 218.612 100.263 220.83Z" fill="#00000D" stroke="#00000D" stroke-linecap="round" stroke-linejoin="round"/>
<path d="M107.207 243.8C106.602 243.927 105.988 244.044 105.373 244.118C103.253 244.383 100.984 244.054 99.5957 242.507C99.7017 243.895 100.656 249.142 103.507 249.291C106.359 249.439 107.207 243.8 107.207 243.8Z" stroke="#00000D" stroke-linecap="round" stroke-linejoin="round"/>
<path d="M104.449 217.629C105.672 220.404 107.62 222.799 110.088 224.561C111.88 225.844 113.926 226.766 115.569 228.229C117.689 230.168 119.077 233.242 118.261 236.03" stroke="white" stroke-linecap="round" stroke-linejoin="round"/>
<path d="M126.604 260.453C124.561 262.092 123.217 264.444 122.841 267.035C122.475 269.274 122.751 271.571 123.636 273.66" stroke="#00000D" stroke-linecap="round" stroke-linejoin="round"/>
<path d="M87.1191 277.943C86.9495 280.72 85.2217 283.126 83.5469 285.363L87.1191 277.943Z" fill="#00000D"/>
<path d="M87.1191 277.943C86.9495 280.72 85.2217 283.126 83.5469 285.363" stroke="#00000D" stroke-linecap="round" stroke-linejoin="round"/>
<path d="M82.9863 299.175C83.8283 300.584 84.9551 301.802 86.2949 302.752C87.6346 303.701 89.1577 304.36 90.7667 304.687" stroke="#00000D" stroke-linecap="round" stroke-linejoin="round"/>
<path d="M123.542 300.828C123.542 300.828 120.69 305.068 111.002 305.958" stroke="#00000D" stroke-linecap="round" stroke-linejoin="round"/>
<path d="M407.359 263.675C407.359 263.675 370.418 275.123 363.465 266.081L364.408 219.961H370.016L376.609 252.45L406.882 246.906C406.882 246.906 410.762 258.926 407.359 263.675Z" fill="white"/>
<path d="M391.799 265.286C389.681 266.128 387.659 267.194 385.768 268.466C388.269 269.261 390.94 268.254 393.442 267.459C396.746 266.445 400.113 265.651 403.523 265.085C403.682 264.141 402.463 261.99 401.986 261.152C401.116 259.689 400.926 259.562 399.463 260.283C396.802 261.619 394.534 263.94 391.799 265.286Z" fill="#1380C7"/>
<path d="M407.359 263.675C407.359 263.675 370.418 275.123 363.465 266.081L364.408 219.961H370.016L376.609 252.45L406.882 246.906C406.882 246.906 410.762 258.926 407.359 263.675Z" stroke="#00000D" stroke-linecap="round" stroke-linejoin="round"/>
<path d="M403.733 264.883L410.22 304.824C410.051 330.709 422.4 326.819 430.975 326.745C440.886 326.66 455.928 316.834 448.55 301.538L451.391 246.174L434.123 244.86C428.431 244.415 405.111 245.146 403.256 248.125C398.444 255.852 403.733 264.883 403.733 264.883Z" fill="white"/>
<path d="M404.752 268.18C408.604 282.755 417.844 295.324 430.605 303.351C429.223 303.132 427.874 302.744 426.588 302.195C425.293 301.638 423.843 301.559 422.496 301.973C422.171 302.09 421.872 302.27 421.616 302.503C421.361 302.736 421.154 303.017 421.007 303.33C420.86 303.644 420.777 303.983 420.761 304.328C420.746 304.673 420.798 305.019 420.917 305.344C421.226 305.84 421.647 306.258 422.146 306.563C424.251 308.042 426.552 309.219 428.983 310.061C426.851 309.842 424.697 310.007 422.623 310.548C422.242 312.393 424.298 313.728 425.92 314.629C428.507 316.155 430.723 318.237 432.407 320.724C426.715 320.736 421.029 321.062 415.373 321.699C414.627 321.866 413.847 321.792 413.147 321.487C412.413 320.941 411.919 320.132 411.769 319.23C410.508 314.82 409.775 310.276 409.585 305.693C409.479 303.118 409.585 300.521 409.246 297.966C408.973 295.952 408.598 293.953 408.122 291.977C406.476 284.331 405.214 276.625 404.338 268.858C403.946 268.89 404.752 268.18 404.752 268.18Z" fill="#1380C7"/>
<path d="M448.54 265C447.11 264.541 445.777 263.822 444.607 262.88C444.936 264.47 447.31 267.215 448.699 268.063C448.985 268.244 449.399 268.392 449.653 268.148C449.907 267.904 450.077 267.279 450.331 267.088L448.54 265Z" fill="#1380C7"/>
<path d="M403.733 264.883L410.22 304.824C410.051 330.709 422.4 326.819 430.975 326.745C440.886 326.66 455.928 316.834 448.55 301.538L451.391 246.174L434.123 244.86C428.431 244.415 405.111 245.146 403.256 248.125C398.444 255.852 403.733 264.883 403.733 264.883Z" stroke="#00000D" stroke-linecap="round" stroke-linejoin="round"/>
<path d="M416.358 244.044C414.5 247.446 413.606 251.29 413.771 255.163C413.769 255.501 413.834 255.836 413.962 256.149C414.439 257.092 415.743 257.092 416.792 257.209C420.873 257.728 423.407 262.032 427.255 263.474C427.39 263.557 427.54 263.612 427.696 263.636C427.853 263.659 428.013 263.651 428.166 263.611C428.32 263.572 428.464 263.502 428.589 263.405C428.715 263.309 428.82 263.188 428.898 263.05C430.572 260.93 431.166 257.951 433.456 256.584C434.452 255.99 435.713 255.746 436.402 254.813C437.187 253.753 436.837 252.227 436.455 250.934C435.83 248.814 435.13 246.609 433.509 245.136C431.781 243.787 429.658 243.042 427.467 243.016C424.259 242.753 421.03 243.054 417.927 243.906C417.969 244.309 416.358 244.044 416.358 244.044Z" fill="#1380C7" stroke="#00000D" stroke-linecap="round" stroke-linejoin="round"/>
<path d="M467.664 271.148C465.073 267.376 463.164 263.178 462.024 258.746C461.609 256.526 460.963 254.355 460.095 252.269C459.277 250.658 458.095 249.26 456.644 248.184C455.193 247.107 453.511 246.383 451.732 246.068C450.973 245.901 450.183 245.938 449.442 246.174C447.905 246.757 447.227 248.528 446.919 250.139C446.254 253.599 446.451 257.171 447.492 260.537C448.202 262.827 456.735 279.427 462.332 285.861C461.844 282.617 465.575 271.773 467.664 271.148Z" fill="white"/>
<path d="M450.926 267.894L456.162 277.762C456.915 279.172 457.763 280.677 459.226 281.292C458.305 278.032 457.782 274.672 457.668 271.286C457.725 269.584 457.529 267.884 457.085 266.24C456.873 266.42 456.65 265.657 456.65 265.657C456.417 266.092 455.802 266.102 455.325 266.007C451.901 265.286 449.548 262.233 447.513 259.393C447.248 260.344 447.206 261.344 447.39 262.315C447.574 263.285 447.978 264.2 448.573 264.989C448.573 264.989 450.756 267.565 450.926 267.894Z" fill="#1380C7"/>
<path d="M467.664 271.148C465.073 267.376 463.164 263.178 462.024 258.746C461.609 256.526 460.963 254.355 460.095 252.269C459.277 250.658 458.095 249.26 456.644 248.184C455.193 247.107 453.511 246.383 451.732 246.068C450.973 245.901 450.183 245.938 449.442 246.174C447.905 246.757 447.227 248.528 446.919 250.139C446.254 253.599 446.451 257.171 447.492 260.537C448.202 262.827 456.735 279.427 462.332 285.861C461.844 282.617 465.575 271.773 467.664 271.148Z" stroke="#00000D" stroke-linecap="round" stroke-linejoin="round"/>
<path d="M460.305 283.02C454.603 272.091 457.359 246.906 457.189 242.857L464.715 242.454C465.468 242.454 468.955 263.929 471.329 272.844C473.449 280.964 471.414 289.179 467.662 289.179C464.545 289.179 461.503 285.32 460.305 283.02Z" fill="white" stroke="#00000D" stroke-linecap="round" stroke-linejoin="round"/>
<path d="M392.35 254.644C397.65 246.906 408.048 246.291 408.048 246.291" stroke="#00000D" stroke-linecap="round" stroke-linejoin="round"/>
<path d="M371.902 258.979C373.505 257.506 374.762 255.696 375.581 253.679L371.902 258.979Z" fill="white"/>
<path d="M371.902 258.979C373.505 257.506 374.762 255.696 375.581 253.679" stroke="#00000D" stroke-linecap="round" stroke-linejoin="round"/>
<path d="M411.281 295.549C414.302 300.499 433.87 305.789 441.671 304.655" stroke="#00000D" stroke-linecap="round" stroke-linejoin="round"/>
<path d="M416.814 309.52C422.451 310.49 428.228 310.27 433.774 308.873" stroke="#00000D" stroke-linecap="round" stroke-linejoin="round"/>
<path d="M442.775 261.491L446.507 266.548C447.015 267.237 447.726 268.01 448.563 267.82" stroke="#00000D" stroke-linecap="round" stroke-linejoin="round"/>
<path d="M470.503 453.288C470.174 454.634 470.068 456.235 471.033 457.242C471.998 458.249 473.397 458.227 474.701 458.206L479.184 458.121C480.914 458.208 482.642 457.937 484.262 457.326C485.072 457.011 485.766 456.455 486.249 455.733C486.733 455.01 486.983 454.157 486.965 453.288C486.854 452.616 486.64 451.965 486.329 451.359C485.926 450.489 485.523 449.61 485.131 448.74C480.181 437.833 472.623 444.469 470.503 453.288Z" fill="white" stroke="#00000D" stroke-linecap="round" stroke-linejoin="round"/>
<path d="M464.187 440.43C464.344 445.436 463.924 450.444 462.936 455.355C462.703 456.468 462.936 458.153 463.996 458.047C464.412 457.983 464.789 457.768 465.056 457.443C468.952 453.6 471.739 448.777 473.123 443.483C473.331 442.933 473.428 442.347 473.408 441.759C473.388 441.171 473.251 440.594 473.006 440.059C472.715 439.63 472.358 439.25 471.946 438.935C468.353 436.063 463.858 433.211 464.187 440.43Z" fill="white" stroke="#00000D" stroke-linecap="round" stroke-linejoin="round"/>
<path d="M451.879 312.308C451.879 312.308 457.465 322.017 458.663 324.275C459.861 326.533 485.163 359.785 490.018 383.996C490.929 388.596 472.263 440.048 472.263 440.048L468.023 437.653C468.023 437.653 470.969 390.727 470.249 386.826C469.528 382.925 450.904 354.135 450.904 354.135C450.904 354.135 440.505 346.493 436.223 337.61L451.879 312.308Z" fill="#00000D"/>
<path d="M452.484 336.635C452.484 336.635 449.304 343.716 449.304 344.733C449.304 345.751 466.794 401.019 471.935 413.803C475.186 422.035 478.052 430.459 480.532 439.073C480.532 439.073 482.525 441.691 481.02 444.373C479.514 447.055 473.525 448.815 472.296 446.419C471.066 444.023 458.95 431.579 453.841 419.198C448.732 406.817 441.545 386.126 437.454 378.42C432.094 368.573 427.337 358.41 423.207 347.987C418.066 334.833 412.809 320.65 412.809 320.65C414.944 320.842 417.089 320.903 419.232 320.83C424.278 320.658 429.274 319.773 434.072 318.201C445.245 314.449 450.078 307.262 450.078 307.262C450.078 307.262 452.845 314.756 453.566 316.209L452.484 336.635Z" fill="#00000D"/>
<path d="M488.153 388.734C487.058 390.61 485.585 392.238 483.828 393.514" stroke="white" stroke-linecap="round" stroke-linejoin="round"/>
<path d="M489.522 385.649C489.362 386.166 489.171 386.672 488.949 387.165" stroke="white" stroke-linecap="round" stroke-linejoin="round"/>
<path d="M442.381 320.12C445.2 324.975 447.84 331.96 447.416 337.557C447.189 338.573 446.832 339.556 446.356 340.483" stroke="white" stroke-linecap="round" stroke-linejoin="round"/>
<path d="M425.315 325.515C425.622 328.218 426.036 332.713 425.442 335.363C424.94 338.073 423.385 340.474 421.117 342.041" stroke="white" stroke-linecap="round" stroke-linejoin="round"/>
<path d="M449.357 315.286C449.973 316.054 450.473 316.907 450.841 317.82C451.559 319.13 452.546 320.275 453.737 321.177C454.928 322.079 456.297 322.72 457.753 323.056" stroke="white" stroke-linecap="round" stroke-linejoin="round"/>
<path d="M440.357 326.12C444.099 334.303 446.961 342.507 452.77 356.414" stroke="white" stroke-linecap="round" stroke-linejoin="round"/>
<path d="M438.365 321.933C438.683 322.569 438.991 323.205 439.298 323.841" stroke="white" stroke-linecap="round" stroke-linejoin="round"/>
<path d="M469.508 384.536C471.223 387.841 473.404 390.883 475.984 393.567" stroke="white" stroke-linecap="round" stroke-linejoin="round"/>
<path d="M471.277 387.589C472.4 392.776 474.451 397.717 477.33 402.175" stroke="white" stroke-linecap="round" stroke-linejoin="round"/>
<path d="M444.926 387.854C436.668 370.237 427.86 352.757 417.037 326.12" stroke="white" stroke-linecap="round" stroke-linejoin="round"/>
<path d="M446.79 392.974C446.589 392.359 446.377 391.744 446.154 391.119" stroke="white" stroke-linecap="round" stroke-linejoin="round"/>
<path d="M475.336 447.14C473.216 444.373 457.762 422.76 453.924 412.965C451.37 406.436 449.441 401.825 447.564 395.316" stroke="white" stroke-linecap="round" stroke-linejoin="round"/>
<path d="M469.508 405.545L476.854 427.138" stroke="white" stroke-linecap="round" stroke-linejoin="round"/>
<path d="M464.558 242.464L462.332 242.645C459.511 243.146 456.614 243.012 453.852 242.252C452.082 241.818 447.979 240.546 447.492 240.461C446.273 240.2 445.042 240.002 443.803 239.867C440.061 239.645 441.959 238.246 443.517 238.309C445.573 238.405 446.262 238.362 447.842 238.479C447.651 238.373 447.068 238.256 447.057 237.8C447.057 236.687 448.52 236.74 448.52 236.74C448.52 236.74 446.919 236.062 447.142 235.225C447.365 234.387 448.435 234.165 449.114 234.228C449.114 234.228 448.213 233.794 448.255 233.327C448.446 231.525 452.145 231.398 452.145 231.398C451.251 230.998 450.413 230.481 449.654 229.861C449.377 229.563 449.184 229.197 449.093 228.801C449.073 228.612 449.104 228.421 449.183 228.249C449.262 228.076 449.386 227.928 449.542 227.819C449.698 227.711 449.88 227.646 450.07 227.633C450.259 227.619 450.449 227.656 450.619 227.741C451.576 228.378 452.499 229.065 453.385 229.797C454.53 230.614 455.855 231.133 457.064 231.864C458.241 232.872 459.192 234.119 459.852 235.521C460.042 235.818 464.558 242.464 464.558 242.464Z" fill="white" stroke="#00000D" stroke-linecap="round" stroke-linejoin="round"/>
<path d="M364.409 219.961V214.12C364.395 211.189 364.824 208.273 365.681 205.47C366.168 203.923 366.741 202.577 367.26 202.375C368.225 202.025 368.649 205.937 368.649 205.937C367.923 202.8 367.459 199.61 367.26 196.397C367.26 192.994 371.839 207.124 371.839 207.124L370.016 219.961H364.409Z" fill="white" stroke="#00000D" stroke-linecap="round" stroke-linejoin="round"/>
<path d="M369.941 210.463C370.495 210.036 370.909 209.452 371.129 208.788L369.941 210.463Z" fill="white"/>
<path d="M369.941 210.463C370.495 210.036 370.909 209.452 371.129 208.788" stroke="#00000D" stroke-linecap="round" stroke-linejoin="round"/>
<path d="M414.334 232.14C416.314 235.473 417.408 239.257 417.514 243.132C417.705 249.577 425.167 258.598 427.298 259.032C429.428 259.467 431.4 248.856 431.305 245.644C431.209 242.433 430.022 233.56 430.022 233.56C430.022 233.56 419.814 225.844 414.334 232.14Z" fill="white" stroke="#00000D" stroke-linecap="round" stroke-linejoin="round"/>
<path d="M417.334 240.673C417.334 240.673 427.118 254.018 430.955 240.45C434.792 226.882 420.196 244.16 417.334 240.673Z" fill="#00000D"/>
<path d="M433.848 231.08C433.328 238.998 429.714 243.45 425.548 244.235C421.743 244.934 416.178 241.055 413.4 235.299C413.188 235.161 409.807 232.818 409.001 232.246C408.581 231.952 408.237 231.56 408.001 231.104C407.765 230.648 407.642 230.141 407.645 229.628C407.671 229.135 407.845 228.662 408.144 228.269C408.442 227.876 408.852 227.581 409.319 227.423H409.415C409.892 227.319 410.389 227.356 410.846 227.529C410.146 224.826 409.574 222.081 409.139 219.314C409.341 212.954 411.45 207.76 418.234 207.251C425.018 206.742 430.689 210.537 430.954 213.272C431.145 215.392 431.834 220.999 432.449 226.798C432.618 228.303 433.964 229.299 433.848 231.08Z" fill="white" stroke="#00000D" stroke-linecap="round" stroke-linejoin="round"/>
<path d="M430.956 221.922C430.956 221.922 426.589 219.918 427.331 226.427C427.479 227.709 429.864 229.607 429.864 229.607C429.864 229.607 429.25 231.525 428.115 231.525" fill="white"/>
<path d="M430.956 221.922C430.956 221.922 426.589 219.918 427.331 226.427C427.479 227.709 429.864 229.607 429.864 229.607C429.864 229.607 429.25 231.525 428.115 231.525" stroke="#00000D" stroke-linecap="round" stroke-linejoin="round"/>
<path d="M422.517 224.148C422.517 224.148 420.291 222.791 418.765 223.628C417.969 223.974 417.291 224.545 416.814 225.271" fill="white"/>
<path d="M422.517 224.148C422.517 224.148 420.291 222.791 418.765 223.628C417.969 223.974 417.291 224.545 416.814 225.271" stroke="#00000D" stroke-linecap="round" stroke-linejoin="round"/>
<path d="M421.246 227.9C421.415 228.684 421.246 229.384 420.79 229.479C420.334 229.575 419.889 229.002 419.73 228.218C419.571 227.434 419.73 226.734 420.196 226.639C420.663 226.543 421.087 227.105 421.246 227.9Z" fill="#00000D"/>
<path d="M429.853 225.61C430.023 226.395 429.853 227.094 429.397 227.19C428.942 227.285 428.496 226.713 428.337 225.939C428.178 225.165 428.337 224.444 428.793 224.36C429.249 224.275 429.694 224.837 429.853 225.61Z" fill="#00000D"/>
<path d="M408.632 211.099C407.857 211.859 407.319 212.827 407.084 213.887C406.449 216.128 406.266 218.473 406.544 220.786C406.822 223.098 407.557 225.333 408.706 227.359C409.413 227.273 410.129 227.301 410.826 227.444C411.568 227.635 412.522 228.907 412.872 229.564C413.178 230.265 413.354 231.016 413.391 231.78C413.222 229.766 413.063 227.762 412.893 225.748C412.779 224.943 412.815 224.124 412.999 223.331C413.518 221.678 412.946 217.777 413.094 214.29C417.493 219.664 423.885 218.71 426.005 218.53C429.185 218.265 431.899 215.01 431.729 212.689C431.56 210.368 430.934 204.389 420.451 203.774C418.141 203.529 415.813 204.014 413.794 205.163C413.154 205.585 412.611 206.137 412.2 206.784C411.788 207.431 411.519 208.157 411.409 208.915C411.261 209.891 411.632 209.975 410.89 210.452C410.148 210.929 409.363 210.474 408.632 211.099Z" fill="#00000D" stroke="#00000D" stroke-linecap="round" stroke-linejoin="round"/>
<path d="M422.518 235.256C422.518 235.256 424.076 236.974 427.33 235.839L422.518 235.256Z" fill="white"/>
<path d="M422.518 235.256C422.518 235.256 424.076 236.974 427.33 235.839" stroke="#00000D" stroke-linecap="round" stroke-linejoin="round"/>
</svg>
