<svg width="150" height="150" viewBox="0 0 140 140" fill="none" xmlns="http://www.w3.org/2000/svg">
    <circle cx="70" cy="70" r="70" fill="#D9D9D9" fill-opacity="0.2" />
    <path
        d="M69.9998 48.6667C72.8288 48.6667 75.5419 49.7905 77.5423 51.7909C79.5427 53.7913 80.6665 56.5044 80.6665 59.3333C80.6665 62.1623 79.5427 64.8754 77.5423 66.8758C75.5419 68.8762 72.8288 70 69.9998 70C67.1709 70 64.4578 68.8762 62.4574 66.8758C60.457 64.8754 59.3332 62.1623 59.3332 59.3333C59.3332 56.5044 60.457 53.7913 62.4574 51.7909C64.4578 49.7905 67.1709 48.6667 69.9998 48.6667ZM69.9998 75.3333C81.7865 75.3333 91.3332 80.1067 91.3332 86V91.3333H48.6665V86C48.6665 80.1067 58.2132 75.3333 69.9998 75.3333Z"
        fill="#00000D" fill-opacity="0.5" />
</svg>
    